# xmcd CD database file
#
# Track frame offsets:
#	150
#	26260
#	56201
#	79406
#	102611
#	136189
#	155458
#	186082
#	204226
#	229775
#
# Disc length: 3512 seconds
#
# Revision: 0
# Processed by: cddbd v1.5.1PL0 Copyright (c) Steve Scherf et al.
# Submitted via: CDex 1.51
#
DISCID=810db60a
DTITLE=Shawn Nykwist - Silver Lining
DYEAR=2004
DGENRE=Jazz
TTITLE0=Home Cooking
TTITLE1=How am I to know?
TTITLE2=Stars fell on Alabama
TTITLE3=I want to be Happy
TTITLE4=Song for Lina
TTITLE5=Uptown
TTITLE6=To hear is to see
TTITLE7=Silver Lining
TTITLE8=Rapid Shave
TTITLE9=You've Changed
EXTD=YEAR: 2004
EXTT0=
EXTT1=
EXTT2=
EXTT3=
EXTT4=
EXTT5=
EXTT6=
EXTT7=
EXTT8=
EXTT9=
PLAYORDER=
